<?xml version="1.0" standalone="no"?><svg xmlns="http://www.w3.org/2000/svg" viewBox="0 0 1440 320"><path fill="#0099ff" fill-opacity="1" d="M0,0L20,32C40,64,80,128,120,160C160,192,200,192,240,192C280,192,320,192,360,181.3C400,171,440,149,480,138.7C520,128,560,128,600,149.3C640,171,680,213,720,218.7C760,224,800,192,840,192C880,192,920,224,960,213.3C1000,203,1040,149,1080,160C1120,171,1160,245,1200,272C1240,299,1280,277,1320,250.7C1360,224,1400,192,1420,176L1440,160L1440,320L1420,320C1400,320,1360,320,1320,320C1280,320,1240,320,1200,320C1160,320,1120,320,1080,320C1040,320,1000,320,960,320C920,320,880,320,840,320C800,320,760,320,720,320C680,320,640,320,600,320C560,320,520,320,480,320C440,320,400,320,360,320C320,320,280,320,240,320C200,320,160,320,120,320C80,320,40,320,20,320L0,320Z"></path></svg>